<svg xmlns="http://www.w3.org/2000/svg" xmlns:xlink="http://www.w3.org/1999/xlink" width="1500" zoomAndPan="magnify" viewBox="0 0 1125 1124.99995" height="1500" preserveAspectRatio="xMidYMid meet" version="1.0"><defs><g/><clipPath id="04a74c881e"><path d="M 562.5 422 L 651 422 L 651 504.855469 L 562.5 504.855469 Z M 562.5 422 " clip-rule="nonzero"/></clipPath><clipPath id="9b1582ff95"><path d="M 804 387.875 L 846.75 387.875 L 846.75 430 L 804 430 Z M 804 387.875 " clip-rule="nonzero"/></clipPath></defs><rect x="-112.5" width="1350" fill="#ffffff" y="-112.499995" height="1349.99994" fill-opacity="1"/><rect x="-112.5" width="1350" fill="#3686b9" y="-112.499995" height="1349.99994" fill-opacity="1"/><path fill="#efefef" d="M 809.253906 420.144531 C 794.285156 433.34375 777.941406 447.917969 762.972656 461.113281 C 762.980469 461.125 762.988281 461.140625 762.996094 461.152344 C 763.148438 461.359375 763.292969 461.589844 763.421875 461.847656 C 763.566406 462.097656 763.679688 462.347656 763.773438 462.597656 C 764.882812 465.054688 765.53125 467.699219 765.722656 470.371094 C 781.957031 456.054688 799.574219 440.363281 815.808594 426.046875 C 813.25 424.535156 811 422.523438 809.253906 420.144531 Z M 809.253906 420.144531 " fill-opacity="1" fill-rule="nonzero"/><path fill="#efefef" d="M 686.871094 420.222656 C 686.640625 423.484375 685.632812 426.617188 684.019531 429.390625 C 697.625 441.382812 712.605469 454.757812 726.214844 466.75 C 726.917969 463.773438 728.246094 460.957031 730.179688 458.566406 C 716.199219 446.246094 700.847656 432.546875 686.871094 420.222656 Z M 686.871094 420.222656 " fill-opacity="1" fill-rule="nonzero"/><g clip-path="url(#04a74c881e)"><path fill="#efefef" d="M 596.347656 467.433594 C 592.925781 464.84375 588.644531 463.246094 583.777344 462.984375 C 571.941406 462.34375 563.386719 473.054688 562.800781 483.957031 C 562.164062 495.796875 572.875 504.347656 583.777344 504.933594 C 595.136719 505.546875 603.453125 495.699219 604.625 485.269531 C 604.71875 484.867188 604.777344 484.445312 604.753906 483.960938 C 604.777344 483.484375 604.71875 483.066406 604.628906 482.671875 C 604.300781 479.523438 603.421875 476.628906 602.054688 474.089844 C 617.980469 460.050781 634.59375 445.320312 650.523438 431.28125 C 648.65625 428.851562 647.328125 426.023438 646.746094 422.929688 C 630.175781 437.53125 612.914062 452.828125 596.347656 467.433594 Z M 571.582031 483.957031 C 570.734375 468.226562 595.128906 468.308594 595.972656 483.957031 C 595.125 499.675781 572.429688 499.675781 571.582031 483.957031 Z M 571.582031 483.957031 " fill-opacity="1" fill-rule="nonzero"/></g><path fill="#efefef" d="M 687.457031 416.953125 C 687.4375 416.789062 687.410156 416.628906 687.378906 416.46875 C 687.367188 416.246094 687.347656 416.019531 687.300781 415.785156 C 685.316406 405.230469 675.542969 397.792969 664.839844 398.691406 C 653.953125 399.605469 646.03125 408.878906 645.734375 419.566406 C 645.695312 420.953125 645.8125 422.308594 646.058594 423.613281 C 646.636719 426.710938 647.96875 429.539062 649.832031 431.964844 C 653.964844 437.339844 660.707031 440.71875 667.714844 440.511719 C 675.015625 440.292969 681.25 436.023438 684.710938 430.082031 C 686.324219 427.308594 687.332031 424.175781 687.5625 420.914062 C 687.652344 419.605469 687.628906 418.28125 687.457031 416.953125 Z M 667.710938 431.730469 C 660.445312 432.382812 654.867188 426.527344 654.511719 419.566406 C 654.195312 413.296875 659.367188 408.578125 665.09375 407.445312 C 671.8125 406.121094 677.371094 411.589844 678.734375 417.648438 C 679.300781 424.605469 675.101562 431.066406 667.710938 431.730469 Z M 667.710938 431.730469 " fill-opacity="1" fill-rule="nonzero"/><path fill="#efefef" d="M 764.109375 461.15625 C 763.980469 460.898438 763.835938 460.671875 763.683594 460.460938 C 763.675781 460.449219 763.667969 460.4375 763.660156 460.421875 C 757.570312 450.800781 745.46875 447.703125 735.34375 453.054688 C 733.003906 454.289062 731.050781 455.945312 729.488281 457.875 C 727.558594 460.269531 726.230469 463.082031 725.523438 466.0625 C 724.261719 471.390625 724.980469 477.242188 727.777344 482.113281 C 733.320312 491.773438 745.492188 494.378906 755.183594 489.992188 C 763.242188 486.347656 767.003906 477.90625 766.414062 469.679688 C 766.226562 467.007812 765.574219 464.363281 764.464844 461.90625 C 764.371094 461.660156 764.257812 461.40625 764.109375 461.15625 Z M 751.554688 481.992188 C 746.34375 485.082031 739.304688 483.207031 735.835938 478.421875 C 731.816406 472.878906 733.34375 465.0625 738.890625 461.175781 C 744.96875 456.914062 752.972656 459.472656 756.527344 465.585938 C 759.570312 471.667969 757.300781 478.585938 751.554688 481.992188 Z M 751.554688 481.992188 " fill-opacity="1" fill-rule="nonzero"/><g clip-path="url(#9b1582ff95)"><path fill="#efefef" d="M 846.691406 407.890625 C 846.382812 396.871094 837.082031 388.542969 826.46875 387.894531 C 826.234375 387.867188 825.996094 387.851562 825.742188 387.855469 C 825.488281 387.851562 825.25 387.867188 825.023438 387.894531 C 813.992188 388.539062 805.714844 396.871094 804.789062 407.890625 C 804.382812 412.714844 805.882812 417.195312 808.5625 420.835938 C 810.308594 423.210938 812.5625 425.222656 815.121094 426.734375 C 818.839844 428.9375 823.207031 430.074219 827.609375 429.707031 C 838.773438 428.769531 847 418.921875 846.691406 407.890625 Z M 827.355469 420.953125 C 819.539062 422.496094 813.371094 415.070312 813.570312 407.890625 C 813.75 401.472656 819.683594 396.808594 825.742188 396.636719 C 832.074219 396.816406 837.371094 401.476562 837.910156 407.890625 C 838.46875 414.539062 833.605469 419.71875 827.355469 420.953125 Z M 827.355469 420.953125 " fill-opacity="1" fill-rule="nonzero"/></g><g fill="#f6f6f6" fill-opacity="1"><g transform="translate(115.898453, 636.850173)"><g><path d="M 92.71875 -110.796875 L 92.71875 0 L 65.578125 0 L 65.578125 -11.765625 L 59.546875 -2.859375 C 57.335938 -1.253906 54.394531 -0.0234375 50.71875 0.828125 C 47.050781 1.679688 43.160156 2.109375 39.046875 2.109375 C 31.804688 2.109375 25.519531 0.375 20.1875 -3.09375 C 14.863281 -6.5625 10.769531 -11.332031 7.90625 -17.40625 C 5.050781 -23.488281 3.625 -30.5 3.625 -38.4375 C 3.625 -47.988281 5.351562 -56.054688 8.8125 -62.640625 C 12.28125 -69.222656 16.925781 -74.195312 22.75 -77.5625 C 28.582031 -80.925781 34.914062 -82.609375 41.75 -82.609375 C 45.070312 -82.609375 48.488281 -82.253906 52 -81.546875 C 55.519531 -80.847656 58.285156 -79.894531 60.296875 -78.6875 L 65.578125 -70.09375 L 65.578125 -110.796875 Z M 48.390625 -16.28125 C 53.410156 -16.28125 57.53125 -17.988281 60.75 -21.40625 C 63.96875 -24.820312 65.578125 -30.75 65.578125 -39.1875 L 65.578125 -42.65625 C 65.578125 -48.082031 64.769531 -52.351562 63.15625 -55.46875 C 61.550781 -58.59375 59.492188 -60.832031 56.984375 -62.1875 C 54.472656 -63.539062 51.859375 -64.21875 49.140625 -64.21875 C 43.921875 -64.21875 39.648438 -62.207031 36.328125 -58.1875 C 33.015625 -54.164062 31.359375 -48.035156 31.359375 -39.796875 C 31.359375 -32.253906 33.015625 -26.445312 36.328125 -22.375 C 39.648438 -18.3125 43.671875 -16.28125 48.390625 -16.28125 Z M 48.390625 -16.28125 "/></g></g></g><g fill="#f6f6f6" fill-opacity="1"><g transform="translate(216.750178, 636.850173)"><g><path d="M 55.328125 0 L 53.515625 -11.765625 L 50.203125 -3.3125 C 44.472656 0.300781 37.835938 2.109375 30.296875 2.109375 C 25.878906 2.109375 21.707031 1.207031 17.78125 -0.59375 C 13.863281 -2.40625 10.671875 -5.09375 8.203125 -8.65625 C 5.742188 -12.226562 4.515625 -16.578125 4.515625 -21.703125 C 4.515625 -30.347656 8.359375 -37.132812 16.046875 -42.0625 C 23.742188 -46.988281 34.425781 -49.453125 48.09375 -49.453125 L 53.21875 -49.453125 L 53.21875 -50.65625 C 53.21875 -51.457031 53.21875 -52.3125 53.21875 -53.21875 C 53.21875 -54.125 53.113281 -55.226562 52.90625 -56.53125 C 52.707031 -58.539062 51.78125 -60.320312 50.125 -61.875 C 48.46875 -63.4375 46.179688 -64.21875 43.265625 -64.21875 C 40.148438 -64.21875 37.6875 -63.257812 35.875 -61.34375 C 34.070312 -59.4375 33.066406 -56.726562 32.859375 -53.21875 L 7.234375 -53.0625 C 7.335938 -59.394531 9.070312 -64.742188 12.4375 -69.109375 C 15.800781 -73.484375 20.296875 -76.828125 25.921875 -79.140625 C 31.554688 -81.453125 37.738281 -82.609375 44.46875 -82.609375 C 53.007812 -82.609375 59.789062 -81.453125 64.8125 -79.140625 C 69.84375 -76.828125 73.515625 -73.734375 75.828125 -69.859375 C 78.140625 -65.992188 79.492188 -61.601562 79.890625 -56.6875 C 80.191406 -52.664062 80.34375 -48.09375 80.34375 -42.96875 L 80.34375 -20.34375 C 80.34375 -17.332031 80.441406 -14.296875 80.640625 -11.234375 C 80.847656 -8.171875 81.253906 -4.425781 81.859375 0 Z M 41.453125 -16.28125 C 44.171875 -16.28125 46.8125 -17.3125 49.375 -19.375 C 51.9375 -21.4375 53.21875 -24.578125 53.21875 -28.796875 L 53.21875 -34.0625 C 47.082031 -34.570312 42.054688 -33.992188 38.140625 -32.328125 C 34.222656 -30.671875 32.265625 -27.832031 32.265625 -23.8125 C 32.265625 -21.40625 33.117188 -19.546875 34.828125 -18.234375 C 36.535156 -16.929688 38.742188 -16.28125 41.453125 -16.28125 Z M 41.453125 -16.28125 "/></g></g></g><g fill="#f6f6f6" fill-opacity="1"><g transform="translate(305.240408, 636.850173)"><g><path d="M 40.703125 -63.015625 L 40.703125 -33.3125 C 40.703125 -32.007812 40.703125 -30.65625 40.703125 -29.25 C 40.703125 -27.84375 40.753906 -26.585938 40.859375 -25.484375 C 41.054688 -22.765625 41.582031 -20.703125 42.4375 -19.296875 C 43.289062 -17.890625 44.847656 -16.957031 47.109375 -16.5 C 49.367188 -16.050781 52.609375 -15.925781 56.828125 -16.125 L 56.828125 0.75 C 54.210938 1.15625 51.625 1.484375 49.0625 1.734375 C 46.5 1.984375 43.765625 2.109375 40.859375 2.109375 C 34.222656 2.109375 28.992188 1.429688 25.171875 0.078125 C 21.359375 -1.273438 18.597656 -3.332031 16.890625 -6.09375 C 15.179688 -8.863281 14.175781 -12.3125 13.875 -16.4375 C 13.769531 -18.75 13.691406 -20.929688 13.640625 -22.984375 C 13.585938 -25.046875 13.5625 -27.179688 13.5625 -29.390625 L 13.5625 -63.015625 L 0.75 -63.015625 L 0.75 -79.890625 L 13.5625 -79.890625 L 13.5625 -100.703125 L 40.703125 -100.703125 L 40.703125 -79.890625 L 58.484375 -79.890625 L 58.484375 -63.015625 Z M 40.703125 -63.015625 "/></g></g></g><g fill="#f6f6f6" fill-opacity="1"><g transform="translate(365.540399, 636.850173)"><g><path d="M 88.34375 -80.5 L 88.34375 0 L 61.203125 0 L 61.203125 -13.5625 L 53.96875 -2.5625 C 51.457031 -1.050781 48.742188 0.101562 45.828125 0.90625 C 42.910156 1.707031 39.59375 2.109375 35.875 2.109375 C 27.632812 2.109375 21.050781 0.0976562 16.125 -3.921875 C 11.207031 -7.941406 8.296875 -12.710938 7.390625 -18.234375 C 7.085938 -20.242188 6.882812 -22.476562 6.78125 -24.9375 C 6.6875 -27.40625 6.640625 -30.25 6.640625 -33.46875 L 6.640625 -80.5 L 33.765625 -80.5 L 33.765625 -39.5 C 33.765625 -38.1875 33.8125 -36.523438 33.90625 -34.515625 C 34.007812 -32.503906 34.164062 -30.492188 34.375 -28.484375 C 34.875 -24.671875 36.101562 -21.679688 38.0625 -19.515625 C 40.019531 -17.359375 43.160156 -16.28125 47.484375 -16.28125 C 51.804688 -16.28125 55.171875 -18.0625 57.578125 -21.625 C 59.992188 -25.195312 61.203125 -29.644531 61.203125 -34.96875 L 61.203125 -80.5 Z M 88.34375 -80.5 "/></g></g></g><g fill="#f6f6f6" fill-opacity="1"><g transform="translate(462.020378, 636.850173)"><g><path d="M 137.640625 -62.265625 C 137.941406 -60.253906 138.140625 -58.015625 138.234375 -55.546875 C 138.335938 -53.085938 138.390625 -50.25 138.390625 -47.03125 L 138.390625 0 L 111.25 0 L 111.25 -41 C 111.25 -42.3125 111.195312 -43.972656 111.09375 -45.984375 C 111 -47.992188 110.851562 -50.003906 110.65625 -52.015625 C 110.25 -55.828125 109.085938 -58.8125 107.171875 -60.96875 C 105.265625 -63.132812 102.554688 -64.21875 99.046875 -64.21875 C 94.722656 -64.21875 91.601562 -62.304688 89.6875 -58.484375 C 87.78125 -54.671875 86.828125 -49.347656 86.828125 -42.515625 L 86.828125 0 L 59.703125 0 L 59.703125 -41 C 59.703125 -42.3125 59.648438 -43.972656 59.546875 -45.984375 C 59.441406 -47.992188 59.289062 -50.003906 59.09375 -52.015625 C 58.6875 -55.828125 57.53125 -58.8125 55.625 -60.96875 C 53.71875 -63.132812 51.003906 -64.21875 47.484375 -64.21875 C 43.160156 -64.21875 40.046875 -62.304688 38.140625 -58.484375 C 36.234375 -54.671875 35.28125 -49.347656 35.28125 -42.515625 L 35.28125 0 L 8.140625 0 L 8.140625 -80.5 L 35.28125 -80.5 L 35.28125 -67.53125 L 41.75 -77.9375 C 44.269531 -79.445312 46.859375 -80.601562 49.515625 -81.40625 C 52.179688 -82.207031 55.375 -82.609375 59.09375 -82.609375 C 65.925781 -82.609375 71.503906 -81.097656 75.828125 -78.078125 C 80.148438 -75.066406 83.164062 -71.351562 84.875 -66.9375 L 93.3125 -77.9375 C 95.820312 -79.445312 98.410156 -80.601562 101.078125 -81.40625 C 103.742188 -82.207031 106.9375 -82.609375 110.65625 -82.609375 C 118.6875 -82.609375 124.960938 -80.597656 129.484375 -76.578125 C 134.015625 -72.554688 136.734375 -67.785156 137.640625 -62.265625 Z M 137.640625 -62.265625 "/></g></g></g><g fill="#f6f6f6" fill-opacity="1"><g transform="translate(607.644858, 636.850173)"><g><path d="M 61.8125 -82.609375 C 69.144531 -82.609375 75.445312 -80.875 80.71875 -77.40625 C 86 -73.9375 90.070312 -69.160156 92.9375 -63.078125 C 95.800781 -57.003906 97.234375 -50 97.234375 -42.0625 C 97.234375 -32.507812 95.5 -24.441406 92.03125 -17.859375 C 88.5625 -11.273438 83.9375 -6.300781 78.15625 -2.9375 C 72.382812 0.425781 66.03125 2.109375 59.09375 2.109375 C 55.78125 2.109375 52.363281 1.753906 48.84375 1.046875 C 45.320312 0.347656 42.554688 -0.601562 40.546875 -1.8125 L 35.28125 -10.40625 L 35.28125 29.546875 L 8.140625 29.546875 L 8.140625 -80.5 L 35.28125 -80.5 L 35.28125 -68.734375 L 41.3125 -77.640625 C 43.613281 -79.347656 46.597656 -80.601562 50.265625 -81.40625 C 53.941406 -82.207031 57.789062 -82.609375 61.8125 -82.609375 Z M 51.703125 -16.28125 C 57.035156 -16.28125 61.332031 -18.289062 64.59375 -22.3125 C 67.863281 -26.332031 69.5 -32.460938 69.5 -40.703125 C 69.5 -48.242188 67.835938 -54.046875 64.515625 -58.109375 C 61.203125 -62.179688 57.1875 -64.21875 52.46875 -64.21875 C 47.539062 -64.21875 43.441406 -62.507812 40.171875 -59.09375 C 36.910156 -55.675781 35.28125 -49.75 35.28125 -41.3125 L 35.28125 -37.84375 C 35.28125 -32.507812 36.082031 -28.257812 37.6875 -25.09375 C 39.289062 -21.925781 41.347656 -19.664062 43.859375 -18.3125 C 46.378906 -16.957031 48.992188 -16.28125 51.703125 -16.28125 Z M 51.703125 -16.28125 "/></g></g></g><g fill="#f6f6f6" fill-opacity="1"><g transform="translate(708.496549, 636.850173)"><g><path d="M 56.828125 -82.609375 C 58.140625 -82.609375 59.242188 -82.582031 60.140625 -82.53125 C 61.046875 -82.476562 62.003906 -82.351562 63.015625 -82.15625 L 63.015625 -60 C 56.273438 -60.5 50.867188 -59.867188 46.796875 -58.109375 C 42.734375 -56.347656 39.796875 -53.179688 37.984375 -48.609375 C 36.179688 -44.035156 35.28125 -37.679688 35.28125 -29.546875 L 35.28125 0 L 8.140625 0 L 8.140625 -80.5 L 35.28125 -80.5 L 35.28125 -64.21875 L 41 -75.53125 C 43.21875 -77.9375 45.78125 -79.71875 48.6875 -80.875 C 51.601562 -82.03125 54.316406 -82.609375 56.828125 -82.609375 Z M 56.828125 -82.609375 "/></g></g></g><g fill="#f6f6f6" fill-opacity="1"><g transform="translate(771.811577, 636.850173)"><g><path d="M 46.890625 -82.609375 C 55.734375 -82.609375 63.367188 -80.875 69.796875 -77.40625 C 76.222656 -73.9375 81.222656 -69.035156 84.796875 -62.703125 C 88.367188 -56.378906 90.15625 -48.894531 90.15625 -40.25 C 90.15625 -31.707031 88.367188 -24.242188 84.796875 -17.859375 C 81.222656 -11.484375 76.222656 -6.5625 69.796875 -3.09375 C 63.367188 0.375 55.734375 2.109375 46.890625 2.109375 C 38.140625 2.109375 30.523438 0.375 24.046875 -3.09375 C 17.566406 -6.5625 12.539062 -11.484375 8.96875 -17.859375 C 5.40625 -24.242188 3.625 -31.707031 3.625 -40.25 C 3.625 -48.894531 5.40625 -56.378906 8.96875 -62.703125 C 12.539062 -69.035156 17.566406 -73.9375 24.046875 -77.40625 C 30.523438 -80.875 38.140625 -82.609375 46.890625 -82.609375 Z M 46.890625 -16.28125 C 51.710938 -16.28125 55.503906 -18.289062 58.265625 -22.3125 C 61.023438 -26.332031 62.40625 -32.3125 62.40625 -40.25 C 62.40625 -48.289062 61.023438 -54.296875 58.265625 -58.265625 C 55.503906 -62.234375 51.710938 -64.21875 46.890625 -64.21875 C 42.054688 -64.21875 38.257812 -62.234375 35.5 -58.265625 C 32.738281 -54.296875 31.359375 -48.289062 31.359375 -40.25 C 31.359375 -32.3125 32.738281 -26.332031 35.5 -22.3125 C 38.257812 -18.289062 42.054688 -16.28125 46.890625 -16.28125 Z M 46.890625 -16.28125 "/></g></g></g><g fill="#f6f6f6" fill-opacity="1"><g transform="translate(480.585921, 715.045166)"><g><path d="M 18.5 -33.125 C 21.007812 -32.8125 23.046875 -31.890625 24.609375 -30.359375 C 26.171875 -28.828125 26.953125 -26.644531 26.953125 -23.8125 C 26.953125 -21.90625 26.570312 -20.285156 25.8125 -18.953125 C 25.0625 -17.617188 24.046875 -16.566406 22.765625 -15.796875 C 21.492188 -15.023438 20.070312 -14.523438 18.5 -14.296875 C 17.757812 -14.203125 17.035156 -14.144531 16.328125 -14.125 C 15.617188 -14.113281 14.84375 -14.109375 14 -14.109375 L 7.78125 -14.109375 L 7.78125 0 L 4.78125 0 L 4.78125 -33.328125 L 14 -33.328125 C 14.84375 -33.328125 15.617188 -33.316406 16.328125 -33.296875 C 17.035156 -33.285156 17.757812 -33.226562 18.5 -33.125 Z M 18.25 -16.90625 C 19.769531 -17.164062 21.0625 -17.832031 22.125 -18.90625 C 23.1875 -19.988281 23.71875 -21.625 23.71875 -23.8125 C 23.71875 -25.9375 23.1875 -27.53125 22.125 -28.59375 C 21.0625 -29.65625 19.769531 -30.300781 18.25 -30.53125 C 17.707031 -30.625 17.101562 -30.6875 16.4375 -30.71875 C 15.78125 -30.75 15.050781 -30.765625 14.25 -30.765625 L 7.78125 -30.765625 L 7.78125 -16.65625 L 14.25 -16.65625 C 15.050781 -16.65625 15.78125 -16.671875 16.4375 -16.703125 C 17.101562 -16.742188 17.707031 -16.8125 18.25 -16.90625 Z M 18.25 -16.90625 "/></g></g></g><g fill="#f6f6f6" fill-opacity="1"><g transform="translate(508.064636, 715.045166)"><g><path d="M 12.75 -26.125 C 13.007812 -26.125 13.265625 -26.109375 13.515625 -26.078125 C 13.773438 -26.046875 14.019531 -26 14.25 -25.9375 L 14.25 -23.5625 C 12.03125 -23.726562 10.1875 -23.085938 8.71875 -21.640625 C 7.25 -20.191406 6.515625 -17.757812 6.515625 -14.34375 L 6.515625 0 L 3.53125 0 L 3.53125 -25.546875 L 6.515625 -25.546875 L 6.515625 -20.90625 L 8.359375 -24.203125 C 9.578125 -25.484375 11.039062 -26.125 12.75 -26.125 Z M 12.75 -26.125 "/></g></g></g><g fill="#f6f6f6" fill-opacity="1"><g transform="translate(522.262713, 715.045166)"><g><path d="M 24.15625 -13.46875 C 24.15625 -13.3125 24.15625 -13.101562 24.15625 -12.84375 C 24.15625 -12.582031 24.117188 -12.257812 24.046875 -11.875 L 4.6875 -11.875 C 4.8125 -9.363281 5.269531 -7.367188 6.0625 -5.890625 C 6.851562 -4.410156 7.859375 -3.335938 9.078125 -2.671875 C 10.304688 -2.015625 11.609375 -1.6875 12.984375 -1.6875 C 14.796875 -1.6875 16.414062 -2.222656 17.84375 -3.296875 C 19.28125 -4.378906 20.222656 -5.96875 20.671875 -8.0625 L 23.8125 -8.0625 C 23.425781 -6.101562 22.6875 -4.46875 21.59375 -3.15625 C 20.5 -1.851562 19.1875 -0.890625 17.65625 -0.265625 C 16.125 0.359375 14.503906 0.671875 12.796875 0.671875 C 10.671875 0.671875 8.753906 0.175781 7.046875 -0.8125 C 5.335938 -1.8125 3.976562 -3.300781 2.96875 -5.28125 C 1.957031 -7.269531 1.453125 -9.757812 1.453125 -12.75 C 1.453125 -15.488281 1.972656 -17.863281 3.015625 -19.875 C 4.066406 -21.882812 5.484375 -23.441406 7.265625 -24.546875 C 9.054688 -25.660156 11.0625 -26.21875 13.28125 -26.21875 C 15.664062 -26.21875 17.660156 -25.644531 19.265625 -24.5 C 20.878906 -23.363281 22.097656 -21.828125 22.921875 -19.890625 C 23.742188 -17.960938 24.15625 -15.820312 24.15625 -13.46875 Z M 13.1875 -23.8125 C 11.800781 -23.8125 10.488281 -23.457031 9.25 -22.75 C 8.007812 -22.039062 6.976562 -20.976562 6.15625 -19.5625 C 5.332031 -18.144531 4.84375 -16.375 4.6875 -14.25 L 21.109375 -14.25 C 20.941406 -17.53125 20.117188 -19.941406 18.640625 -21.484375 C 17.160156 -23.035156 15.34375 -23.8125 13.1875 -23.8125 Z M 13.1875 -23.8125 "/></g></g></g><g fill="#f6f6f6" fill-opacity="1"><g transform="translate(548.29263, 715.045166)"><g><path d="M 13.328125 -26.21875 C 16.285156 -26.21875 18.691406 -25.390625 20.546875 -23.734375 C 22.398438 -22.078125 23.519531 -19.894531 23.90625 -17.1875 L 20.765625 -17.1875 C 20.347656 -19.34375 19.503906 -20.992188 18.234375 -22.140625 C 16.960938 -23.285156 15.296875 -23.859375 13.234375 -23.859375 C 11.816406 -23.859375 10.457031 -23.460938 9.15625 -22.671875 C 7.851562 -21.878906 6.789062 -20.6875 5.96875 -19.09375 C 5.144531 -17.5 4.734375 -15.460938 4.734375 -12.984375 C 4.734375 -10.378906 5.117188 -8.238281 5.890625 -6.5625 C 6.660156 -4.894531 7.679688 -3.664062 8.953125 -2.875 C 10.222656 -2.082031 11.566406 -1.6875 12.984375 -1.6875 C 14.890625 -1.6875 16.515625 -2.21875 17.859375 -3.28125 C 19.210938 -4.34375 20.117188 -5.90625 20.578125 -7.96875 L 23.671875 -7.96875 C 23.085938 -5.132812 21.820312 -2.984375 19.875 -1.515625 C 17.925781 -0.0546875 15.566406 0.671875 12.796875 0.671875 C 10.671875 0.671875 8.753906 0.179688 7.046875 -0.796875 C 5.335938 -1.773438 3.976562 -3.265625 2.96875 -5.265625 C 1.957031 -7.265625 1.453125 -9.757812 1.453125 -12.75 C 1.453125 -15.582031 2 -17.992188 3.09375 -19.984375 C 4.1875 -21.984375 5.632812 -23.519531 7.4375 -24.59375 C 9.238281 -25.675781 11.203125 -26.21875 13.328125 -26.21875 Z M 13.328125 -26.21875 "/></g></g></g><g fill="#f6f6f6" fill-opacity="1"><g transform="translate(573.646452, 715.045166)"><g><path d="M 5.015625 -33.078125 C 5.597656 -33.078125 6.082031 -32.882812 6.46875 -32.5 C 6.851562 -32.113281 7.046875 -31.632812 7.046875 -31.0625 C 7.046875 -30.507812 6.851562 -30.03125 6.46875 -29.625 C 6.082031 -29.226562 5.597656 -29.03125 5.015625 -29.03125 C 4.472656 -29.03125 4 -29.226562 3.59375 -29.625 C 3.195312 -30.03125 3 -30.507812 3 -31.0625 C 3 -31.632812 3.195312 -32.113281 3.59375 -32.5 C 4 -32.882812 4.472656 -33.078125 5.015625 -33.078125 Z M 6.515625 0 L 3.53125 0 L 3.53125 -25.546875 L 6.515625 -25.546875 Z M 6.515625 0 "/></g></g></g><g fill="#f6f6f6" fill-opacity="1"><g transform="translate(583.787976, 715.045166)"><g><path d="M 10.765625 -26.21875 C 13.535156 -26.21875 15.675781 -25.476562 17.1875 -24 C 18.707031 -22.519531 19.609375 -20.65625 19.890625 -18.40625 L 16.765625 -18.40625 C 16.015625 -22.007812 13.9375 -23.8125 10.53125 -23.8125 C 8.976562 -23.8125 7.726562 -23.40625 6.78125 -22.59375 C 5.832031 -21.789062 5.359375 -20.679688 5.359375 -19.265625 C 5.359375 -17.785156 5.910156 -16.691406 7.015625 -15.984375 C 8.128906 -15.273438 9.609375 -14.695312 11.453125 -14.25 C 14.410156 -13.539062 16.597656 -12.585938 18.015625 -11.390625 C 19.429688 -10.203125 20.140625 -8.53125 20.140625 -6.375 C 20.140625 -4.125 19.273438 -2.382812 17.546875 -1.15625 C 15.828125 0.0625 13.648438 0.671875 11.015625 0.671875 C 8.472656 0.671875 6.289062 0.03125 4.46875 -1.25 C 2.644531 -2.539062 1.554688 -4.632812 1.203125 -7.53125 L 4.296875 -7.53125 C 4.648438 -5.375 5.460938 -3.859375 6.734375 -2.984375 C 8.003906 -2.117188 9.492188 -1.6875 11.203125 -1.6875 C 12.816406 -1.6875 14.203125 -2.054688 15.359375 -2.796875 C 16.515625 -3.535156 17.09375 -4.648438 17.09375 -6.140625 C 17.09375 -7.554688 16.578125 -8.664062 15.546875 -9.46875 C 14.515625 -10.269531 12.757812 -10.976562 10.28125 -11.59375 C 8.832031 -11.976562 7.492188 -12.457031 6.265625 -13.03125 C 5.046875 -13.613281 4.070312 -14.378906 3.34375 -15.328125 C 2.625 -16.285156 2.265625 -17.488281 2.265625 -18.9375 C 2.265625 -21.125 3.050781 -22.882812 4.625 -24.21875 C 6.207031 -25.550781 8.253906 -26.21875 10.765625 -26.21875 Z M 10.765625 -26.21875 "/></g></g></g><g fill="#f6f6f6" fill-opacity="1"><g transform="translate(605.519824, 715.045166)"><g><path d="M 5.015625 -33.078125 C 5.597656 -33.078125 6.082031 -32.882812 6.46875 -32.5 C 6.851562 -32.113281 7.046875 -31.632812 7.046875 -31.0625 C 7.046875 -30.507812 6.851562 -30.03125 6.46875 -29.625 C 6.082031 -29.226562 5.597656 -29.03125 5.015625 -29.03125 C 4.472656 -29.03125 4 -29.226562 3.59375 -29.625 C 3.195312 -30.03125 3 -30.507812 3 -31.0625 C 3 -31.632812 3.195312 -32.113281 3.59375 -32.5 C 4 -32.882812 4.472656 -33.078125 5.015625 -33.078125 Z M 6.515625 0 L 3.53125 0 L 3.53125 -25.546875 L 6.515625 -25.546875 Z M 6.515625 0 "/></g></g></g><g fill="#f6f6f6" fill-opacity="1"><g transform="translate(615.661349, 715.045166)"><g><path d="M 13.859375 -26.21875 C 16.566406 -26.21875 18.84375 -25.625 20.6875 -24.4375 C 22.539062 -23.25 23.9375 -21.628906 24.875 -19.578125 C 25.8125 -17.535156 26.28125 -15.257812 26.28125 -12.75 C 26.28125 -10.269531 25.8125 -8.003906 24.875 -5.953125 C 23.9375 -3.910156 22.539062 -2.296875 20.6875 -1.109375 C 18.84375 0.078125 16.566406 0.671875 13.859375 0.671875 C 11.148438 0.671875 8.867188 0.078125 7.015625 -1.109375 C 5.171875 -2.296875 3.78125 -3.910156 2.84375 -5.953125 C 1.914062 -8.003906 1.453125 -10.269531 1.453125 -12.75 C 1.453125 -15.257812 1.914062 -17.535156 2.84375 -19.578125 C 3.78125 -21.628906 5.171875 -23.25 7.015625 -24.4375 C 8.867188 -25.625 11.148438 -26.21875 13.859375 -26.21875 Z M 13.859375 -1.6875 C 15.628906 -1.6875 17.195312 -2.128906 18.5625 -3.015625 C 19.9375 -3.898438 21.015625 -5.160156 21.796875 -6.796875 C 22.585938 -8.441406 22.984375 -10.425781 22.984375 -12.75 C 22.984375 -15.070312 22.585938 -17.0625 21.796875 -18.71875 C 21.015625 -20.375 19.9375 -21.632812 18.5625 -22.5 C 17.195312 -23.375 15.628906 -23.8125 13.859375 -23.8125 C 12.085938 -23.8125 10.515625 -23.375 9.140625 -22.5 C 7.773438 -21.632812 6.695312 -20.375 5.90625 -18.71875 C 5.125 -17.0625 4.734375 -15.070312 4.734375 -12.75 C 4.734375 -10.425781 5.125 -8.441406 5.90625 -6.796875 C 6.695312 -5.160156 7.773438 -3.898438 9.140625 -3.015625 C 10.515625 -2.128906 12.085938 -1.6875 13.859375 -1.6875 Z M 13.859375 -1.6875 "/></g></g></g><g fill="#f6f6f6" fill-opacity="1"><g transform="translate(643.381523, 715.045166)"><g><path d="M 24.046875 -18.59375 C 24.117188 -17.945312 24.15625 -17.328125 24.15625 -16.734375 C 24.15625 -16.140625 24.15625 -15.328125 24.15625 -14.296875 L 24.15625 0 L 21.15625 0 L 21.15625 -13.953125 C 21.15625 -14.691406 21.15625 -15.359375 21.15625 -15.953125 C 21.15625 -16.554688 21.125 -17.179688 21.0625 -17.828125 C 20.894531 -19.554688 20.296875 -20.976562 19.265625 -22.09375 C 18.234375 -23.207031 16.640625 -23.765625 14.484375 -23.765625 C 13.066406 -23.765625 11.753906 -23.394531 10.546875 -22.65625 C 9.335938 -21.914062 8.363281 -20.738281 7.625 -19.125 C 6.882812 -17.507812 6.515625 -15.367188 6.515625 -12.703125 L 6.515625 0 L 3.53125 0 L 3.53125 -25.546875 L 6.515625 -25.546875 L 6.515625 -20.625 L 7.875 -23.375 C 8.90625 -24.40625 10.003906 -25.132812 11.171875 -25.5625 C 12.347656 -26 13.644531 -26.21875 15.0625 -26.21875 C 17.769531 -26.21875 19.890625 -25.535156 21.421875 -24.171875 C 22.953125 -22.804688 23.828125 -20.945312 24.046875 -18.59375 Z M 24.046875 -18.59375 "/></g></g></g><g fill="#f6f6f6" fill-opacity="1"><g transform="translate(670.860238, 715.045166)"><g/></g></g><g fill="#f6f6f6" fill-opacity="1"><g transform="translate(680.71201, 715.045166)"><g><path d="M 18.5 -33.125 C 21.007812 -32.8125 23.046875 -31.890625 24.609375 -30.359375 C 26.171875 -28.828125 26.953125 -26.644531 26.953125 -23.8125 C 26.953125 -21.90625 26.570312 -20.285156 25.8125 -18.953125 C 25.0625 -17.617188 24.046875 -16.566406 22.765625 -15.796875 C 21.492188 -15.023438 20.070312 -14.523438 18.5 -14.296875 C 17.757812 -14.203125 17.035156 -14.144531 16.328125 -14.125 C 15.617188 -14.113281 14.84375 -14.109375 14 -14.109375 L 7.78125 -14.109375 L 7.78125 0 L 4.78125 0 L 4.78125 -33.328125 L 14 -33.328125 C 14.84375 -33.328125 15.617188 -33.316406 16.328125 -33.296875 C 17.035156 -33.285156 17.757812 -33.226562 18.5 -33.125 Z M 18.25 -16.90625 C 19.769531 -17.164062 21.0625 -17.832031 22.125 -18.90625 C 23.1875 -19.988281 23.71875 -21.625 23.71875 -23.8125 C 23.71875 -25.9375 23.1875 -27.53125 22.125 -28.59375 C 21.0625 -29.65625 19.769531 -30.300781 18.25 -30.53125 C 17.707031 -30.625 17.101562 -30.6875 16.4375 -30.71875 C 15.78125 -30.75 15.050781 -30.765625 14.25 -30.765625 L 7.78125 -30.765625 L 7.78125 -16.65625 L 14.25 -16.65625 C 15.050781 -16.65625 15.78125 -16.671875 16.4375 -16.703125 C 17.101562 -16.742188 17.707031 -16.8125 18.25 -16.90625 Z M 18.25 -16.90625 "/></g></g></g><g fill="#f6f6f6" fill-opacity="1"><g transform="translate(708.190714, 715.045166)"><g><path d="M 6.328125 -35.5 L 6.328125 -6.765625 C 6.328125 -6.210938 6.328125 -5.710938 6.328125 -5.265625 C 6.328125 -4.816406 6.34375 -4.398438 6.375 -4.015625 C 6.4375 -3.203125 6.675781 -2.660156 7.09375 -2.390625 C 7.519531 -2.117188 8.28125 -2.046875 9.375 -2.171875 L 9.375 0.046875 C 8.988281 0.109375 8.59375 0.144531 8.1875 0.15625 C 7.78125 0.175781 7.382812 0.1875 7 0.1875 C 6 0.1875 5.160156 -0.0351562 4.484375 -0.484375 C 3.816406 -0.929688 3.445312 -1.847656 3.375 -3.234375 C 3.34375 -3.679688 3.328125 -4.171875 3.328125 -4.703125 C 3.328125 -5.234375 3.328125 -5.890625 3.328125 -6.671875 L 3.328125 -35.5 Z M 6.328125 -35.5 "/></g></g></g><g fill="#f6f6f6" fill-opacity="1"><g transform="translate(719.636269, 715.045166)"><g><path d="M 18.828125 0 L 18.40625 -4.640625 L 17.140625 -1.9375 C 16.242188 -1.03125 15.191406 -0.367188 13.984375 0.046875 C 12.773438 0.460938 11.460938 0.671875 10.046875 0.671875 C 7.691406 0.671875 5.75 0.0664062 4.21875 -1.140625 C 2.695312 -2.347656 1.9375 -4.109375 1.9375 -6.421875 C 1.9375 -9.347656 3.242188 -11.523438 5.859375 -12.953125 C 8.484375 -14.390625 12.097656 -15.109375 16.703125 -15.109375 L 18.359375 -15.109375 L 18.359375 -16.03125 C 18.359375 -16.613281 18.359375 -17.15625 18.359375 -17.65625 C 18.359375 -18.15625 18.320312 -18.660156 18.25 -19.171875 C 18.125 -20.648438 17.601562 -21.789062 16.6875 -22.59375 C 15.769531 -23.40625 14.394531 -23.8125 12.5625 -23.8125 C 10.789062 -23.8125 9.320312 -23.332031 8.15625 -22.375 C 7 -21.425781 6.328125 -19.957031 6.140625 -17.96875 L 3 -17.96875 C 3.15625 -20.476562 4.109375 -22.476562 5.859375 -23.96875 C 7.617188 -25.46875 9.851562 -26.21875 12.5625 -26.21875 C 15.394531 -26.21875 17.5 -25.613281 18.875 -24.40625 C 20.257812 -23.207031 21.050781 -21.5625 21.25 -19.46875 C 21.3125 -18.914062 21.34375 -18.363281 21.34375 -17.8125 C 21.34375 -17.269531 21.34375 -16.691406 21.34375 -16.078125 L 21.34375 -7.140625 C 21.34375 -6.015625 21.382812 -4.921875 21.46875 -3.859375 C 21.550781 -2.796875 21.671875 -1.507812 21.828125 0 Z M 10.96875 -1.6875 C 13.1875 -1.6875 14.972656 -2.453125 16.328125 -3.984375 C 17.679688 -5.515625 18.359375 -7.472656 18.359375 -9.859375 L 18.359375 -12.796875 C 15.972656 -12.960938 13.78125 -12.867188 11.78125 -12.515625 C 9.789062 -12.160156 8.195312 -11.503906 7 -10.546875 C 5.8125 -9.597656 5.21875 -8.304688 5.21875 -6.671875 C 5.21875 -5.054688 5.707031 -3.820312 6.6875 -2.96875 C 7.664062 -2.113281 9.09375 -1.6875 10.96875 -1.6875 Z M 10.96875 -1.6875 "/></g></g></g><g fill="#f6f6f6" fill-opacity="1"><g transform="translate(744.603751, 715.045166)"><g><path d="M 24.046875 -18.59375 C 24.117188 -17.945312 24.15625 -17.328125 24.15625 -16.734375 C 24.15625 -16.140625 24.15625 -15.328125 24.15625 -14.296875 L 24.15625 0 L 21.15625 0 L 21.15625 -13.953125 C 21.15625 -14.691406 21.15625 -15.359375 21.15625 -15.953125 C 21.15625 -16.554688 21.125 -17.179688 21.0625 -17.828125 C 20.894531 -19.554688 20.296875 -20.976562 19.265625 -22.09375 C 18.234375 -23.207031 16.640625 -23.765625 14.484375 -23.765625 C 13.066406 -23.765625 11.753906 -23.394531 10.546875 -22.65625 C 9.335938 -21.914062 8.363281 -20.738281 7.625 -19.125 C 6.882812 -17.507812 6.515625 -15.367188 6.515625 -12.703125 L 6.515625 0 L 3.53125 0 L 3.53125 -25.546875 L 6.515625 -25.546875 L 6.515625 -20.625 L 7.875 -23.375 C 8.90625 -24.40625 10.003906 -25.132812 11.171875 -25.5625 C 12.347656 -26 13.644531 -26.21875 15.0625 -26.21875 C 17.769531 -26.21875 19.890625 -25.535156 21.421875 -24.171875 C 22.953125 -22.804688 23.828125 -20.945312 24.046875 -18.59375 Z M 24.046875 -18.59375 "/></g></g></g><g fill="#f6f6f6" fill-opacity="1"><g transform="translate(772.082478, 715.045166)"><g><path d="M 24.046875 -18.59375 C 24.117188 -17.945312 24.15625 -17.328125 24.15625 -16.734375 C 24.15625 -16.140625 24.15625 -15.328125 24.15625 -14.296875 L 24.15625 0 L 21.15625 0 L 21.15625 -13.953125 C 21.15625 -14.691406 21.15625 -15.359375 21.15625 -15.953125 C 21.15625 -16.554688 21.125 -17.179688 21.0625 -17.828125 C 20.894531 -19.554688 20.296875 -20.976562 19.265625 -22.09375 C 18.234375 -23.207031 16.640625 -23.765625 14.484375 -23.765625 C 13.066406 -23.765625 11.753906 -23.394531 10.546875 -22.65625 C 9.335938 -21.914062 8.363281 -20.738281 7.625 -19.125 C 6.882812 -17.507812 6.515625 -15.367188 6.515625 -12.703125 L 6.515625 0 L 3.53125 0 L 3.53125 -25.546875 L 6.515625 -25.546875 L 6.515625 -20.625 L 7.875 -23.375 C 8.90625 -24.40625 10.003906 -25.132812 11.171875 -25.5625 C 12.347656 -26 13.644531 -26.21875 15.0625 -26.21875 C 17.769531 -26.21875 19.890625 -25.535156 21.421875 -24.171875 C 22.953125 -22.804688 23.828125 -20.945312 24.046875 -18.59375 Z M 24.046875 -18.59375 "/></g></g></g><g fill="#f6f6f6" fill-opacity="1"><g transform="translate(799.561205, 715.045166)"><g><path d="M 5.015625 -33.078125 C 5.597656 -33.078125 6.082031 -32.882812 6.46875 -32.5 C 6.851562 -32.113281 7.046875 -31.632812 7.046875 -31.0625 C 7.046875 -30.507812 6.851562 -30.03125 6.46875 -29.625 C 6.082031 -29.226562 5.597656 -29.03125 5.015625 -29.03125 C 4.472656 -29.03125 4 -29.226562 3.59375 -29.625 C 3.195312 -30.03125 3 -30.507812 3 -31.0625 C 3 -31.632812 3.195312 -32.113281 3.59375 -32.5 C 4 -32.882812 4.472656 -33.078125 5.015625 -33.078125 Z M 6.515625 0 L 3.53125 0 L 3.53125 -25.546875 L 6.515625 -25.546875 Z M 6.515625 0 "/></g></g></g><g fill="#f6f6f6" fill-opacity="1"><g transform="translate(809.702729, 715.045166)"><g><path d="M 24.046875 -18.59375 C 24.117188 -17.945312 24.15625 -17.328125 24.15625 -16.734375 C 24.15625 -16.140625 24.15625 -15.328125 24.15625 -14.296875 L 24.15625 0 L 21.15625 0 L 21.15625 -13.953125 C 21.15625 -14.691406 21.15625 -15.359375 21.15625 -15.953125 C 21.15625 -16.554688 21.125 -17.179688 21.0625 -17.828125 C 20.894531 -19.554688 20.296875 -20.976562 19.265625 -22.09375 C 18.234375 -23.207031 16.640625 -23.765625 14.484375 -23.765625 C 13.066406 -23.765625 11.753906 -23.394531 10.546875 -22.65625 C 9.335938 -21.914062 8.363281 -20.738281 7.625 -19.125 C 6.882812 -17.507812 6.515625 -15.367188 6.515625 -12.703125 L 6.515625 0 L 3.53125 0 L 3.53125 -25.546875 L 6.515625 -25.546875 L 6.515625 -20.625 L 7.875 -23.375 C 8.90625 -24.40625 10.003906 -25.132812 11.171875 -25.5625 C 12.347656 -26 13.644531 -26.21875 15.0625 -26.21875 C 17.769531 -26.21875 19.890625 -25.535156 21.421875 -24.171875 C 22.953125 -22.804688 23.828125 -20.945312 24.046875 -18.59375 Z M 24.046875 -18.59375 "/></g></g></g><g fill="#f6f6f6" fill-opacity="1"><g transform="translate(837.181433, 715.045166)"><g><path d="M 24.78125 -25.59375 L 24.78125 -6.46875 C 24.78125 -5.21875 24.78125 -4.09375 24.78125 -3.09375 C 24.78125 -2.09375 24.765625 -1.222656 24.734375 -0.484375 C 24.597656 2.929688 23.523438 5.585938 21.515625 7.484375 C 19.503906 9.378906 16.742188 10.328125 13.234375 10.328125 C 10.078125 10.328125 7.5625 9.660156 5.6875 8.328125 C 3.820312 6.992188 2.734375 4.941406 2.421875 2.171875 L 2.359375 1.59375 L 5.359375 1.59375 L 5.453125 2.171875 C 5.679688 4.035156 6.492188 5.46875 7.890625 6.46875 C 9.296875 7.46875 11.078125 7.96875 13.234375 7.96875 C 15.941406 7.96875 18.007812 7.21875 19.4375 5.71875 C 20.875 4.226562 21.640625 2.207031 21.734375 -0.34375 C 21.765625 -1.050781 21.78125 -1.6875 21.78125 -2.25 C 21.78125 -2.8125 21.78125 -3.429688 21.78125 -4.109375 L 21.78125 -4.734375 L 20.09375 -1.9375 C 19.1875 -1.03125 18.117188 -0.367188 16.890625 0.046875 C 15.671875 0.460938 14.320312 0.671875 12.84375 0.671875 C 10.457031 0.671875 8.410156 0.101562 6.703125 -1.03125 C 5.003906 -2.175781 3.703125 -3.738281 2.796875 -5.71875 C 1.898438 -7.695312 1.453125 -9.941406 1.453125 -12.453125 C 1.453125 -15.546875 2.015625 -18.113281 3.140625 -20.15625 C 4.265625 -22.207031 5.753906 -23.726562 7.609375 -24.71875 C 9.460938 -25.71875 11.46875 -26.21875 13.625 -26.21875 C 14.875 -26.21875 16.078125 -26.023438 17.234375 -25.640625 C 18.398438 -25.253906 19.382812 -24.675781 20.1875 -23.90625 L 21.78125 -21.15625 L 21.78125 -25.59375 Z M 13.28125 -1.6875 C 14.789062 -1.6875 16.191406 -2.023438 17.484375 -2.703125 C 18.773438 -3.378906 19.8125 -4.484375 20.59375 -6.015625 C 21.382812 -7.546875 21.78125 -9.597656 21.78125 -12.171875 L 21.78125 -14.109375 C 21.78125 -16.515625 21.359375 -18.425781 20.515625 -19.84375 C 19.679688 -21.257812 18.632812 -22.273438 17.375 -22.890625 C 16.125 -23.503906 14.875 -23.8125 13.625 -23.8125 C 11.914062 -23.8125 10.390625 -23.375 9.046875 -22.5 C 7.710938 -21.632812 6.660156 -20.390625 5.890625 -18.765625 C 5.117188 -17.140625 4.734375 -15.164062 4.734375 -12.84375 C 4.734375 -10.8125 5.054688 -8.953125 5.703125 -7.265625 C 6.347656 -5.578125 7.304688 -4.222656 8.578125 -3.203125 C 9.847656 -2.191406 11.414062 -1.6875 13.28125 -1.6875 Z M 13.28125 -1.6875 "/></g></g></g></svg>